<?xml version="1.0" encoding="utf-8"?>
<!-- Generator: Adobe Illustrator 21.0.0, SVG Export Plug-In . SVG Version: 6.00 Build 0)  -->
<svg version="1.1" id="Layer_1" xmlns="http://www.w3.org/2000/svg" xmlns:xlink="http://www.w3.org/1999/xlink" x="0px" y="0px"
	 viewBox="0 0 502.9 301" style="enable-background:new 0 0 502.9 301;" xml:space="preserve">
<style type="text/css">
	.st0{fill:#FFFFFF;}
	.st1{fill:#222222;}
</style>
<rect class="st0" width="502.9" height="301"/>
<path class="st1" d="M299.8,143.9c0,0.1,0,0.1,0,0.2c-0.9,1.7-2.5,3.8-3.5,5.4c-1.5,2.5-3.6,4.9-5.4,7.5c-0.1,0.1-0.1,0.3,0,0.4
	c7.9,9.6,15.7,19.2,23.8,29c0.1,0.2,0,0.4-0.2,0.5c-0.3,0.1-0.5,0.1-0.8,0.1c-9.8,0-19.6,0-29.4,0c-1,0-1.5-0.4-2.1-1.1
	c-2.4-3.1-4.8-6.1-7.2-9.2c-0.3-0.4-0.6-0.7-0.9-1.1c-0.1-0.1-0.3-0.1-0.4,0c-0.4,0.3-0.7,0.6-1.1,0.9c-2.9,2.2-5.7,4.6-8.8,6.6
	c-6.7,4.5-14.3,6.6-22.3,6.9c-7.7,0.3-15.2-0.4-22.5-2.7c-3.1-1-6.1-2.3-9-4c-9.8-5.8-15.3-14.7-17.1-25.8
	c-0.9-5.8-0.7-11.5,0.8-17.2c1.7-6.5,5.4-11.9,10-16.7c3.5-3.7,7.6-6.6,11.9-9.4c1.8-1.1,3.6-2.3,5.5-3.4c0.1-0.1,0.2-0.3,0.1-0.4
	c-0.3-0.4-0.6-0.8-0.9-1.2c-3.2-4-6-8.3-8.1-13c-2.8-6.4-3.8-13.1-2.4-20c2-9,7.1-15.7,15.3-20c8-4.1,16.5-5.4,25.5-4.2
	c5.1,0.7,10.1,2.3,14.4,5c8.8,5.5,13.2,13.6,13.7,24.1c0.4,9.4-2.9,17.4-9.6,24c-3.1,3.1-6.6,5.8-10.3,8.2c-0.7,0.4-1.3,0.9-2,1.3
	c-0.1,0.1-0.2,0.3-0.1,0.4c1.6,2.5,14.6,18.8,18.7,23.3c0.1,0.1,0.3,0.1,0.5,0c0.3-0.4,0.6-0.7,0.8-1.1c2.4-3.8,3.8-8,4.7-12.4
	c0.4-2.2,0.7-4.4,1.1-6.6c0.1-0.5,0.2-1,0.3-1.6c0-0.1,0.1-0.2,0.3-0.2c3.2,0,9.7,0,12.9,0c0.2,0,0.3,0.1,0.3,0.3l0,5.3c0,0,0,0,0,0
	c-0.1,6,0.9,11.9,2.2,17.7L299.8,143.9z M301.5,115.8c2.2-22.9,12.6-40.9,32-53.3c12.6-8.1,26.6-11.4,41.5-10.3
	c13.5,1,25.7,5.7,36.7,14.1c-7.2,5.9-14.4,11.8-21.5,17.6c-10.5-5.6-21.4-6.8-32.7-3.4c-9,2.7-16.3,8.1-21.7,15.8
	c-10.9,15.3-10,36.2,2.1,50.6c12.2,14.5,32.5,19.1,49.6,11c6.4-3,11.7-7.4,15.9-13.1c4.2-5.7,6.7-12,7.7-19c1-7,0.1-13.8-2.4-20.5
	c7.1-5.8,14.1-11.5,21.1-17.3c9.2,15.1,12.6,41.1,0.5,64c-12.8,24.2-38.6,38.6-66.2,36.3c-30.7-2.5-55.9-25.5-61.6-55.8l-0.2-1.1
	c-0.8-4.7-1.1-9.5-0.9-14.3L301.5,115.8z M235.2,127.4c-2.2,1.5-4.3,2.9-6.4,4.4c-2.3,1.6-4.4,3.5-6.2,5.8
	c-3.8,4.7-4.7,10.1-3.4,15.9c1.8,7.8,9.3,13.8,17.5,14.4c8.9,0.6,16.4-2.5,22.8-8.6c0.2-0.2,0.4-0.5,0.6-0.8
	C251.8,148.1,243.6,137.8,235.2,127.4z M242.7,98.9c3.2-2.2,6.2-4.3,8.6-7.2c2.7-3.1,3.9-6.6,3.8-10.7c-0.1-4.5-3-8.1-7.3-9.2
	c-2.1-0.6-4.3-0.6-6.4-0.2c-4.7,0.8-7.8,4.1-8.5,8.8c-0.4,3.2,0.4,6.2,2.1,8.9c1.1,1.8,2.4,3.5,3.7,5.1
	C239.9,95.9,241.3,97.3,242.7,98.9z M99.7,74.4c12.3,0,24.5,0,36.9,0c0,37.5,0,112.4,0,112.4l28.4-10.3c0,0,0-64.6,0-102.2
	c13.9,0,26,0,39.7,0c3.4-18.4,15.4-21.4,17.7-23.4c-45,0-106.1-0.3-151.3-0.3c0,45.4,0,136.3,0,136.3l28.5-10.1
	C99.7,176.8,99.7,111.9,99.7,74.4z"/>
<rect x="70.8" y="208" class="st1" width="367" height="43"/>
<g>
	<path class="st0" d="M107.2,218.3v24h-5.5v-9.9h-7.5v9.9h-5.5v-24h5.5v9.4h7.5v-9.4H107.2z"/>
	<path class="st0" d="M123.7,218.3v24h-5.6v-24H123.7z"/>
	<path class="st0" d="M153.3,229.4v12.8h-2.6c-0.2-0.9-0.5-1.8-0.8-2.8c-1.7,2.1-3.9,3.1-6.5,3.1c-3.1,0-5.6-1.1-7.3-3.4
		c-1.7-2.2-2.6-5.1-2.6-8.7c0-3.8,0.9-6.9,2.8-9.2s4.4-3.5,7.6-3.5c2.7,0,4.8,0.8,6.5,2.3s2.6,3.5,3,6l-5.3,0.7
		c-0.4-2.9-1.8-4.4-4.1-4.4c-1.5,0-2.7,0.7-3.5,2.1s-1.2,3.3-1.2,5.9c0,2.5,0.4,4.3,1.3,5.6s2,2,3.6,2c1,0,1.9-0.3,2.7-1
		s1.2-1.7,1.2-3.1h-4.5v-4.5H153.3z"/>
	<path class="st0" d="M182.4,218.3v24h-5.5v-9.9h-7.5v9.9h-5.5v-24h5.5v9.4h7.5v-9.4H182.4z"/>
	<path class="st0" d="M214.1,218.3v24h-5.6v-24H214.1z"/>
	<path class="st0" d="M243.5,218.3v24h-4.8l-9.4-16.2c0,0.4,0,0.7,0,0.8c0,0.4,0.1,0.8,0.1,1v14.4H225v-24h6.1l8.2,14.2
		c-0.1-0.7-0.1-1.2-0.1-1.6v-12.6H243.5z"/>
	<path class="st0" d="M269.6,218.3v4.7h-5.9v19.2H258V223h-6v-4.7H269.6z"/>
	<path class="st0" d="M295.3,222.8h-11.4v4.9h9v4.5h-9v5.2h11.4v4.7h-17.1v-24h17.1V222.8z"/>
	<path class="st0" d="M323.4,229.4v12.8h-2.6c-0.2-0.9-0.5-1.8-0.8-2.8c-1.7,2.1-3.9,3.1-6.5,3.1c-3.1,0-5.6-1.1-7.3-3.4
		s-2.6-5.1-2.6-8.7c0-3.8,0.9-6.9,2.8-9.2s4.4-3.5,7.6-3.5c2.7,0,4.8,0.8,6.5,2.3s2.6,3.5,3,6l-5.3,0.7c-0.4-2.9-1.8-4.4-4.1-4.4
		c-1.5,0-2.7,0.7-3.5,2.1s-1.2,3.3-1.2,5.9c0,2.5,0.4,4.3,1.3,5.6s2,2,3.6,2c1,0,1.9-0.3,2.7-1s1.2-1.7,1.2-3.1h-4.5v-4.5H323.4z"/>
	<path class="st0" d="M339.7,232.8v9.5H334v-24h10.5c1.9,0,3.5,0.2,4.7,0.7s2.2,1.3,2.9,2.5s1.2,2.5,1.2,4c0,2.9-1.4,4.9-4.2,6.2
		l4.4,10.6h-6.2l-3.7-9.5H339.7z M339.7,222.5v6.1h3.4c1.1,0,1.9-0.1,2.5-0.2s1-0.5,1.4-1.1s0.6-1.2,0.6-1.9c0-0.7-0.2-1.3-0.6-1.8
		s-0.8-0.9-1.3-1c-0.5-0.1-1.3-0.2-2.6-0.2H339.7z"/>
	<path class="st0" d="M369.4,218.3v24h-5.6v-24H369.4z"/>
	<path class="st0" d="M395.5,218.3v4.7h-5.9v19.2h-5.7V223h-6v-4.7H395.5z"/>
	<path class="st0" d="M423,218.3l-7.5,13.9v10.1h-5.6v-10.1l-7.5-13.9h6.5l4.6,9.1l4.6-9.1H423z"/>
</g>
</svg>
