<?xml version="1.0" encoding="utf-8"?>
<!-- Generator: Adobe Illustrator 21.0.0, SVG Export Plug-In . SVG Version: 6.00 Build 0)  -->
<svg version="1.1" id="IT_x26_C" xmlns="http://www.w3.org/2000/svg" xmlns:xlink="http://www.w3.org/1999/xlink" x="0px" y="0px"
	 viewBox="0 0 1019 156" style="enable-background:new 0 0 1019 156;" xml:space="preserve">
<style type="text/css">
	.st0{fill:#05A6F0;}
	.st1{fill:#666666;}
</style>
<path id="itac" class="st0" d="M256.2,104.4c0,0.1,0,0.2,0,0.2c-1,1.9-2.8,4.2-3.9,6.1c-1.7,2.8-4,5.5-6,8.4c-0.1,0.1-0.1,0.3,0,0.4
	c8.8,10.7,17.6,21.5,26.6,32.4c0.2,0.2,0.1,0.5-0.2,0.5c-0.3,0.1-0.6,0.1-0.8,0.1c-11,0-21.9,0-32.9,0c-1.1,0-1.7-0.4-2.3-1.2
	c-2.7-3.4-5.4-6.9-8.1-10.3c-0.3-0.4-0.7-0.8-1.1-1.3c-0.1-0.1-0.3-0.2-0.5,0c-0.4,0.3-0.8,0.7-1.2,1c-3.3,2.5-6.4,5.1-9.8,7.4
	c-7.6,5-16,7.4-25,7.8c-8.6,0.4-17-0.4-25.2-3c-3.5-1.1-6.9-2.6-10-4.5c-11-6.5-17.1-16.4-19.1-28.9c-1.1-6.5-0.8-12.9,0.9-19.3
	c1.9-7.3,6-13.3,11.2-18.7c3.9-4.1,8.5-7.4,13.3-10.5c2-1.3,4-2.5,6.1-3.9c0.2-0.1,0.2-0.3,0.1-0.5c-0.4-0.5-0.7-0.9-1-1.4
	c-3.6-4.5-6.7-9.3-9.1-14.5c-3.2-7.2-4.3-14.7-2.6-22.4c2.2-10.1,7.9-17.6,17.1-22.3c8.9-4.6,18.4-6.1,28.5-4.8
	c5.7,0.7,11.3,2.6,16.1,5.6c9.8,6.1,14.8,15.3,15.4,26.9c0.5,10.5-3.2,19.5-10.7,26.9c-3.5,3.5-7.4,6.5-11.5,9.2
	c-0.7,0.5-1.5,1-2.2,1.4c-0.2,0.1-0.2,0.3-0.1,0.5c1.8,2.8,16.3,21,20.9,26.1c0.1,0.2,0.4,0.1,0.5,0c0.3-0.4,0.6-0.8,0.9-1.3
	c2.6-4.3,4.2-9,5.2-13.9c0.5-2.4,0.8-4.9,1.2-7.4c0.1-0.5,0.2-1.1,0.3-1.8c0-0.2,0.2-0.3,0.3-0.3c3.6,0,10.8,0,14.5,0
	c0.2,0,0.3,0.2,0.3,0.4l-0.1,6c0,0,0,0,0,0c-0.1,6.7,1,13.3,2.5,19.9L256.2,104.4z M258.1,72.9c2.5-25.6,14.1-45.7,35.8-59.7
	C308,4.1,323.7,0.5,340.4,1.7c15.2,1.1,28.8,6.4,41.1,15.8c-8.1,6.6-16.1,13.2-24.1,19.7c-11.7-6.2-23.9-7.6-36.6-3.8
	c-10.1,3.1-18.2,9.1-24.3,17.7c-12.2,17.2-11.2,40.5,2.3,56.7c13.6,16.3,36.4,21.3,55.6,12.3c7.2-3.4,13.1-8.3,17.8-14.7
	c4.7-6.3,7.5-13.4,8.6-21.2c1.1-7.8,0.1-15.5-2.6-23c7.9-6.5,15.8-12.9,23.6-19.3c10.3,16.9,14.1,46,0.6,71.6
	c-14.4,27.1-43.2,43.2-74.1,40.7c-34.4-2.9-62.5-28.5-68.9-62.4l-0.2-1.2c-0.9-5.3-1.2-10.6-1-16L258.1,72.9z M183.9,85.9
	c-2.4,1.7-4.8,3.3-7.1,4.9c-2.6,1.8-4.9,4-6.9,6.5c-4.2,5.3-5.3,11.3-3.8,17.8c2.1,8.7,10.4,15.4,19.6,16.1
	c10,0.7,18.4-2.8,25.5-9.7c0.3-0.2,0.4-0.6,0.7-0.9C202.5,109.1,193.2,97.6,183.9,85.9z M192.2,54.1c3.6-2.4,6.9-4.9,9.7-8
	c3-3.4,4.4-7.4,4.3-12c-0.2-5-3.3-9-8.1-10.3c-2.4-0.6-4.8-0.7-7.2-0.3c-5.3,0.9-8.8,4.5-9.5,9.8c-0.5,3.6,0.5,6.9,2.3,10
	c1.2,2,2.7,3.9,4.2,5.7C189.2,50.6,190.7,52.3,192.2,54.1z M32.1,26.6c13.8,0,27.5,0,41.4,0c0,42,0,125.8,0,125.8l31.8-11.5
	c0,0,0-72.4,0-114.5c15.6,0,29.1,0,44.4,0c3.8-20.7,17.3-24,19.8-26.2C119.2,0.3,50.8-0.1,0.3-0.1c0,50.8,0,152.6,0,152.6l31.9-11.3
	C32.1,141.2,32.1,68.6,32.1,26.6z"/>
<g id="xin">
	<g>
		<path class="st1" d="M503.9,43.6C503.9,43.6,503.9,43.6,503.9,43.6l7.4-13.4c1.7-4.3,5.9-7.2,10.6-7.2h8.9c0.2,0,0.3,0.2,0.2,0.3
			l-11.1,20.6c0,0,0,0.1,0,0.1v88.8c0,0.1-0.1,0.3-0.3,0.3h-5.9c-5.2,0-8.4-4.2-8.4-9.4V60.8c0-0.1-0.1-0.3-0.3-0.3h-7.2
			c-0.1,0-0.3-0.1-0.3-0.3l0-11.1c0-1.1,0.7-2.3,1.8-2.5C501.8,46.1,503.9,43.6,503.9,43.6C503.9,43.6,503.9,43.6,503.9,43.6z
			 M559.7,30.5v-2.4c0-2.9,2.3-5.2,5.2-5.2h5.8c2.7,0,5,2.2,5,5v2.6c0,0.1,0.1,0.3,0.3,0.3h30c0.1,0,0.3,0.1,0.3,0.3v12.2
			c0,0.1-0.1,0.3-0.3,0.3h-77.7c-0.1,0-0.3-0.1-0.3-0.3V31c0-0.1,0.1-0.3,0.3-0.3h31.2C559.6,30.7,559.7,30.6,559.7,30.5z
			 M604.3,92.5v30.2c0,4.4-3.6,7.9-7.9,7.9h-67.2c-0.1,0-0.3-0.1-0.3-0.3V92.5c0-0.1,0.1-0.3,0.3-0.3h74.8
			C604.2,92.2,604.3,92.4,604.3,92.5z M529.4,64.5V51.8c0-0.1,0.1-0.3,0.3-0.3h73.4c0.1,0,0.3,0.1,0.3,0.3v12.7
			c0,0.1-0.1,0.3-0.3,0.3h-73.4C529.6,64.8,529.4,64.6,529.4,64.5z M603.6,84.7h-73.9c-0.1,0-0.3-0.1-0.3-0.3V72.7
			c0-0.1,0.1-0.3,0.3-0.3h73.9c0.1,0,0.3,0.1,0.3,0.3v11.7C603.9,84.6,603.7,84.7,603.6,84.7z M589.5,105.5h-44.8
			c-0.5,0-0.9,0.4-0.9,0.9v10.8c0,0.1,0.1,0.3,0.3,0.3h44.1c0.9,0,1.6-0.7,1.6-1.6v-10C589.8,105.6,589.7,105.5,589.5,105.5z"/>
	</g>
</g>
<path id="shang" class="st1" d="M635.6,41V29.4h44.9v0c1.7-3,6-6.5,9.4-6.5h0.1c3.5,0,7.7,3.5,9.4,6.5v0h44.7V41h-22.8L716.1,53
	h25.7v67.2c0,10.3-3.1,12.8-11.8,12.8h-7.9c-0.8,0-1.5-0.7-1.5-1.5v-11.8h5c1.9,0,2.4-0.4,2.4-2.4V65.2h-16.5v3.4
	c0,1.7,0.5,1.9,2.4,1.9h7.7v13.3h-16c-7.2,0-8.5-1.9-8.5-9.5v-9.1h-14v6.7c0,9.8-2,12.4-9,12.3h-16.1V71.5h8.2
	c1.6,0,2.4-0.8,2.4-2.4v-3.9h-16.6v67.6h-4.8c-5.2,0-9.4-4.2-9.4-9.4V53h27.4L660.2,41H635.6z M708.6,123.9h-47.9V89.6h58.3v23.9
	C719.1,121.5,716.5,123.9,708.6,123.9z M699.9,53l6.2-11.9h-30.7l4.7,11.9H699.9z M704.7,109.8v-8.5h-30.3v11.4h27.5
	C703.8,112.6,704.7,112.1,704.7,109.8z"/>
<g id="ke">
	<g>
		<path class="st1" d="M774.2,124.2C774.2,124.2,774.2,124.2,774.2,124.2l4.4-58.2c0,0,0,0,0,0h13.1c0,0,0,0,0,0l-2.9,58.2
			c0,0,0,0,0,0H774.2z"/>
	</g>
	<g>
		<path class="st1" d="M808.8,59.6C808.8,59.6,808.8,59.6,808.8,59.6l0,73.2c0,0,0,0,0,0l-13.4,0.1c0,0,0,0,0,0V59.6c0,0,0,0,0,0
			h-20.7c0,0,0,0,0,0V47.7c0,0,0,0,0,0h20.7c0,0,0,0,0,0v-8.1c0,0,0,0,0,0l-19.7,1.8c0,0,0,0,0,0v-2c0-6.7,5.1-11.3,11.8-11.9
			l41.5-3.8c0,0,0,0,0,0l-3.4,12.5c0,0,0,0,0,0l-16.7,2c0,0,0,0,0,0v9.5c0,0,0,0,0,0h20.1c0,0,0,0,0,0l-0.2,11.9c0,0,0,0,0,0H808.8z
			"/>
	</g>
	<g>
		<path class="st1" d="M825.1,66C825.2,66,825.2,66,825.1,66l3.7,58.2c0,0,0,0,0,0h-12.8c0,0,0,0,0,0L812.5,66c0,0,0,0,0,0H825.1z"
			/>
	</g>
	<g>
		<path class="st1" d="M860.2,23.6C860.2,23.6,860.2,23.6,860.2,23.6l7.6,0c4.1,0,6.4,3.3,6.4,7.4v66.3c0,0,0,0,0,0l8.9-0.5
			c0,0,0,0,0,0v12.3c0,0,0,0,0,0l-8.9,0.7c0,0,0,0,0,0v14.8c0,4.7-2.8,8.4-7.4,8.4l-6.6,0c0,0,0,0,0,0v-22.5c0,0,0,0,0,0l-30.1,2.1
			c0,0,0,0,0,0v-12.5c0,0,0,0,0,0l30.1-2c0,0,0,0,0,0V23.6z"/>
	</g>
	<g>
		<path class="st1" d="M844.4,67.8c1.5,0,3,0.4,4.5,1.2c1.5,0.8,2.6,1.9,3.5,3.4c0.8,1.5,1.2,3,1.3,4.7c0,1.7-0.4,3.2-1.2,4.6
			c-0.8,1.5-2,2.6-3.4,3.4c-1.4,0.8-3,1.2-4.6,1.2c-1.7,0-3.2-0.4-4.6-1.2c-1.4-0.8-2.5-2-3.4-3.4c-0.9-1.5-1.3-3-1.2-4.7
			c0-1.6,0.4-3.1,1.3-4.6c0.9-1.5,2-2.7,3.5-3.4C841.3,68.2,842.8,67.8,844.4,67.8z"/>
	</g>
	<g>
		<path class="st1" d="M844.4,40.5c1.5,0,3,0.4,4.5,1.2c1.5,0.8,2.6,1.9,3.5,3.4c0.8,1.5,1.2,3,1.3,4.7c0,1.7-0.4,3.2-1.2,4.6
			c-0.8,1.5-2,2.6-3.4,3.4c-1.4,0.8-3,1.2-4.6,1.2c-1.7,0-3.2-0.4-4.6-1.2c-1.4-0.8-2.5-2-3.4-3.4c-0.9-1.5-1.3-3-1.2-4.7
			c0-1.6,0.4-3.1,1.3-4.6c0.9-1.5,2-2.7,3.5-3.4C841.3,40.9,842.8,40.5,844.4,40.5z"/>
	</g>
</g>
<path id="ji" class="st1" d="M910.7,47.5V35.4h21.1V23.1h14.6v12.3h9.8v12.2h-9.8v11h9.7v13.1h-9.7v50.2c0.6,8.5-2.3,11.5-10.8,10.8
	h-16.2c-3.7,0-6.7-3-6.7-6.7v-6.2h15.9c2.1,0,2.8-0.6,2.8-2.8V92.8l-6.9,14.8c-1.9,3.8-4.2,4.7-9,4.7H914c-2.6,0-4.8-2.1-4.8-4.8
	v-8.1c0-0.8,0.6-1.4,1.4-1.4l0,0c1.6,0.1,2.8-1.1,4.7-4.3l16.3-34.6V47.5H910.7z M960.2,35.8h20.1V22.7h7.5c3.9,0,7,3.1,7,7v6.1
	h22.3v12.8h-22.3v13h17c2.9,0,5.3,2.4,5.3,5.3v6.8l-21,31l9,12.4c1.7,2.5,4.4,2.8,7.2,2.8h6.6v12.8h-16.1c-3.2,0-6.6-1.3-8.1-3.8
	l-7.6-11.4l-9.5,13.3c-0.9,1.3-3,1.9-6.2,1.9h-8.2c-4.7,0-8.6-3.8-8.6-8.6v-4.2h11.2c2.3,0,3.2-0.6,4.7-2.8l9-12.4l-18.4-26.6h17.5
	l9.5,13.8l12.9-18.5h-41.2V61.6h20.5v-13h-20.1V35.8z"/>
</svg>
